<?xml version="1.0" encoding="utf-8"?>
<!-- Generator: Adobe Illustrator 19.2.0, SVG Export Plug-In . SVG Version: 6.00 Build 0)  -->
<svg version="1.1" id="Capa_1" xmlns="http://www.w3.org/2000/svg" xmlns:xlink="http://www.w3.org/1999/xlink" x="0px" y="0px"
	 viewBox="0 0 293.2 114.7" style="enable-background:new 0 0 293.2 114.7;" xml:space="preserve">
<style type="text/css">
	.st0{fill:#FF7900;}
	.st1{fill:#FFFFFF;}
</style>
<g>
	<path class="st0" d="M6.1,49c1.3,1.3,2.9,2.4,4.9,3.2c2,0.9,4.3,1.3,6.8,1.3c2.3,0,4.1-0.3,5.4-0.9c1.4-0.6,2-1.6,2-2.9
		c0-0.6-0.1-1.1-0.4-1.6c-0.2-0.5-0.7-1-1.5-1.5c-0.8-0.5-1.8-0.9-3.2-1.4c-1.4-0.5-3.2-1-5.5-1.5c-1.4-0.4-2.9-0.8-4.4-1.4
		c-1.5-0.6-3-1.4-4.3-2.4c-1.3-1-2.4-2.3-3.3-3.7c-0.9-1.5-1.3-3.2-1.3-5.2c0-2.1,0.5-3.9,1.5-5.6c1-1.6,2.3-3,4-4.1
		c1.6-1.1,3.5-1.9,5.5-2.5c2-0.6,4.1-0.9,6.2-0.9c3.7,0,6.8,0.4,9.4,1.2c2.6,0.8,4.9,1.9,7,3.5l-5.4,7.4c-1.1-0.8-2.6-1.6-4.4-2.3
		c-1.8-0.7-4-1-6.5-1s-4.2,0.4-5.2,1.1c-1,0.7-1.5,1.6-1.5,2.7c0,1.3,0.8,2.3,2.4,3.1c1.6,0.7,4.2,1.5,7.6,2.4
		c2.1,0.5,4,1.1,5.7,1.8c1.7,0.7,3.1,1.6,4.4,2.7c1.2,1.1,2.1,2.3,2.8,3.8c0.7,1.5,1,3.2,1,5.2c0,2-0.5,3.8-1.4,5.5
		c-0.9,1.6-2.2,3-3.9,4.1c-1.6,1.1-3.5,2-5.7,2.6c-2.2,0.6-4.5,0.9-6.9,0.9c-3.9,0-7.4-0.5-10.6-1.6c-3.1-1.1-5.7-2.7-7.6-4.8
		L6.1,49z"/>
	<path class="st0" d="M67,57c-1.1,1.4-2.8,2.6-5.2,3.6c-2.3,1.1-4.9,1.6-7.7,1.6c-1.7,0-3.4-0.3-5.1-0.8c-1.7-0.5-3.2-1.3-4.6-2.4
		c-1.4-1.1-2.5-2.5-3.4-4.2c-0.9-1.7-1.3-3.7-1.3-6c0-2.4,0.4-4.5,1.3-6.4c0.9-1.9,2.1-3.4,3.7-4.7c1.6-1.3,3.5-2.2,5.8-2.9
		c2.3-0.7,4.7-1,7.5-1c0.8,0,1.7,0,2.8,0c1,0,2,0.1,2.9,0.1c1.1,0.1,2.2,0.1,3.3,0.2v-1c0-2.1-0.8-3.7-2.5-4.9
		c-1.7-1.2-3.8-1.8-6.5-1.8c-3,0-5.3,0.4-7.1,1.2c-1.8,0.8-3.3,1.6-4.7,2.5L41.4,23c0.8-0.6,1.8-1.2,2.8-1.8
		c1.1-0.6,2.3-1.2,3.7-1.7c1.4-0.5,3.1-0.9,4.9-1.2c1.9-0.3,4-0.5,6.5-0.5c2.7,0,5.1,0.4,7.2,1.1c2.2,0.7,4,1.8,5.6,3.1
		c1.5,1.3,2.7,2.9,3.6,4.8c0.8,1.9,1.2,3.9,1.2,6.1v28h-9.8L67,57z M67,42c-1.1-0.1-2.1-0.1-3.1-0.2c-0.8-0.1-1.7-0.1-2.6-0.1
		c-0.9,0-1.7,0-2.4,0c-3.4,0-5.7,0.7-7.1,2c-1.4,1.3-2,2.9-2,4.6c0,1.8,0.6,3.2,1.9,4.2c1.3,1,3.2,1.5,5.6,1.5
		c1.2,0,2.4-0.2,3.6-0.6c1.2-0.4,2.2-1,3.1-1.7c0.9-0.7,1.6-1.5,2.2-2.5c0.6-0.9,0.8-2,0.8-3V42z"/>
	<path class="st0" d="M85.3,27.7h-6.1v-8.5h6.1v-2.6c0-3,0.5-5.6,1.4-7.7c0.9-2.1,2.2-3.8,3.6-5.2c1.5-1.3,3.1-2.3,5-2.9
		c1.8-0.6,3.6-0.9,5.4-0.9c1.9,0,4,0.3,6.3,0.8c2.3,0.5,4.5,1.7,6.7,3.6l-4.9,6.9c-0.9-0.7-2-1.2-3.1-1.6c-1.1-0.4-2.2-0.6-3.3-0.6
		c-2.1,0-3.7,0.7-4.9,2c-1.2,1.3-1.8,3.2-1.8,5.7v2.4h7.8v8.5h-7.7v33.2H85.3V27.7z"/>
	<g>
		<g>
			<path class="st0" d="M47.3,106.3V78h9.4v-9.4h18.5v24.3l1.3-1.3V67.2H55.8L46,77v30.6h14.5l1.3-1.3H47.3z M55.4,69.5v7.1h-7.1
				L55.4,69.5z"/>
		</g>
		<g>
			<path class="st0" d="M54.6,112.8l27.2-27.2c0.2-0.2,0.5-0.2,0.7,0s0.2,0.5,0,0.7l-27.2,27.2c-0.1,0.1-0.2,0.1-0.4,0.1"/>
		</g>
	</g>
	<g>
		<g>
			<path class="st0" d="M67.3,87.5h-0.9v-1.2c0-2.3-1.8-4.1-4.1-4.1c-2.3,0-4.1,1.8-4.1,4.1v1.2h-0.9c-0.2,0-0.3,0.1-0.3,0.3v7.3
				c0,0.6,0.5,1.2,1.2,1.2h8.2c0.6,0,1.2-0.5,1.2-1.2v-7.3C67.6,87.6,67.5,87.5,67.3,87.5z M63.2,93.6c0,0.1,0,0.2-0.1,0.2
				c-0.1,0.1-0.1,0.1-0.2,0.1h-1.2c-0.1,0-0.2,0-0.2-0.1c-0.1-0.1-0.1-0.1-0.1-0.2l0.2-1.7c-0.3-0.2-0.5-0.6-0.5-0.9
				c0-0.6,0.5-1.2,1.2-1.2c0.6,0,1.2,0.5,1.2,1.2c0,0.4-0.2,0.7-0.5,0.9L63.2,93.6z M64.7,87.5H60v-1.2c0-1.3,1.1-2.3,2.3-2.3
				c1.3,0,2.3,1.1,2.3,2.3V87.5z"/>
		</g>
	</g>
	<path class="st0" d="M116.3,35.6c0-1.1,0.2-2.1,0.7-3.2c0.5-1.1,1.2-2,2-2.9c0.9-0.9,2-1.6,3.3-2.1c1.3-0.6,2.9-0.8,4.6-0.8
		c1.6,0,3,0.3,4.3,0.8c1.2,0.6,2.3,1.3,3.1,2.1c0.7,0.8,1.3,1.6,1.7,2.5l6.9-6.9c-1.6-2.2-3.7-4-6.3-5.3c-2.6-1.4-5.9-2.1-9.6-2.1
		c-3.1,0-6,0.6-8.6,1.7c-2.6,1.1-4.8,2.7-6.7,4.6c-1.9,2-3.3,4.3-4.4,6.9c-1,2.6-1.6,5.5-1.6,8.6c0,3.4,0.5,6.5,1.6,9.2
		c1,2.8,2.5,5.2,4.4,7.2c0,0.1,0.1,0.1,0.2,0.1l6.8-6.8c-0.5-0.6-1-1.2-1.4-1.9c-0.7-1.2-1-2.6-1-4.2h8.5l7.6-7.6H116.3z"/>
	<path class="st0" d="M97.5,69.3c-0.7,0.7-1.4,1.3-1.9,1.9l-0.3-4.7h-10v16.2l15.5-15.5c-0.2,0.1-0.4,0.2-0.6,0.3
		C99.2,68.1,98.3,68.7,97.5,69.3z"/>
</g>
<g>
	<path class="st1" d="M130.3,87.3c0-3,0.5-5.9,1.6-8.6c1.1-2.7,2.6-5.1,4.6-7.1c2-2,4.3-3.6,7.1-4.8c2.8-1.2,5.8-1.8,9.1-1.8
		c3.3,0,6.4,0.6,9.1,1.8c2.8,1.2,5.1,2.8,7.1,4.8c2,2,3.5,4.4,4.6,7.1c1.1,2.7,1.6,5.6,1.6,8.6s-0.5,5.9-1.6,8.6
		c-1.1,2.7-2.6,5.1-4.6,7.1c-2,2-4.3,3.7-7.1,4.8c-2.8,1.2-5.8,1.8-9.1,1.8c-3.3,0-6.4-0.6-9.1-1.8c-2.8-1.2-5.1-2.8-7.1-4.8
		c-2-2-3.5-4.4-4.6-7.1C130.9,93.2,130.3,90.3,130.3,87.3z M152.7,100.5c2,0,3.8-0.4,5.2-1.2c1.5-0.8,2.7-1.9,3.7-3.2
		c1-1.3,1.7-2.7,2.2-4.3c0.5-1.5,0.7-3.1,0.7-4.6c0-1.5-0.2-3-0.7-4.6c-0.5-1.6-1.2-3-2.2-4.3c-1-1.3-2.2-2.3-3.7-3.1
		c-1.5-0.8-3.2-1.2-5.2-1.2c-2,0-3.8,0.4-5.2,1.2c-1.5,0.8-2.7,1.8-3.7,3.1c-1,1.3-1.7,2.7-2.2,4.3c-0.5,1.6-0.7,3.1-0.7,4.6
		c0,1.5,0.2,3.1,0.7,4.6c0.5,1.5,1.2,3,2.2,4.3c1,1.3,2.2,2.4,3.7,3.2C149,100.1,150.7,100.5,152.7,100.5z"/>
	<path class="st1" d="M184,75h-7.1v-8.5h7.1V53h10.5v13.5h11.2V75h-11.2v18.2c0,2.4,0.4,4.2,1.2,5.5c0.8,1.3,2.1,1.9,3.9,1.9
		c1.7,0,3-0.2,4-0.7c1-0.5,1.9-1,2.8-1.7l4.4,6.5c-2.1,1.7-4.1,2.9-6.1,3.7c-2,0.7-4.3,1.1-6.8,1.1c-2.5,0-4.7-0.4-6.5-1.1
		c-1.8-0.7-3.2-1.8-4.3-3.2c-1.1-1.4-1.9-3-2.4-4.9c-0.5-1.9-0.7-4-0.7-6.4V75z"/>
	<path class="st1" d="M251.6,102.1c-0.2,0.2-0.7,0.7-1.5,1.5c-0.8,0.8-2,1.6-3.5,2.5c-1.5,0.9-3.4,1.7-5.8,2.4
		c-2.3,0.7-5.1,1.1-8.4,1.1c-3.3,0-6.3-0.6-9.1-1.7c-2.7-1.1-5.1-2.7-7-4.7c-1.9-2-3.4-4.4-4.4-7.2c-1-2.8-1.6-5.9-1.6-9.2
		c0-3.1,0.5-5.9,1.6-8.6c1-2.6,2.5-4.9,4.4-6.9c1.9-2,4.1-3.5,6.7-4.6c2.6-1.1,5.4-1.7,8.6-1.7c3.8,0,7,0.7,9.6,2.1
		c2.6,1.4,4.8,3.2,6.4,5.5c1.6,2.3,2.8,4.8,3.5,7.6c0.7,2.8,1.1,5.7,1.1,8.7v1.5h-31.1c0,1.5,0.3,2.9,1,4.2c0.7,1.2,1.6,2.3,2.7,3.2
		c1.1,0.9,2.3,1.6,3.7,2c1.4,0.5,2.8,0.7,4.1,0.7c2,0,3.8-0.2,5.3-0.6c1.5-0.4,2.8-0.8,3.9-1.3c1.1-0.5,1.9-1,2.6-1.6
		c0.7-0.6,1.2-1,1.6-1.4L251.6,102.1z M241.4,82.9c0-1.1-0.2-2.1-0.6-3.2c-0.4-1.1-1-2-1.8-2.9c-0.8-0.9-1.8-1.6-3.1-2.1
		c-1.2-0.6-2.7-0.8-4.3-0.8c-1.7,0-3.2,0.3-4.6,0.8c-1.3,0.6-2.4,1.3-3.3,2.1c-0.9,0.9-1.6,1.8-2,2.9c-0.5,1.1-0.7,2.1-0.7,3.2
		H241.4z"/>
	<path class="st1" d="M262.5,96.3c1.3,1.3,2.9,2.4,4.9,3.2c2,0.9,4.3,1.3,6.8,1.3c2.3,0,4.1-0.3,5.4-0.9c1.4-0.6,2-1.6,2-2.9
		c0-0.6-0.1-1.1-0.4-1.6c-0.2-0.5-0.7-1-1.5-1.5c-0.8-0.5-1.8-0.9-3.2-1.4c-1.4-0.5-3.2-1-5.5-1.5c-1.4-0.4-2.9-0.8-4.4-1.4
		c-1.5-0.6-3-1.4-4.3-2.4c-1.3-1-2.4-2.3-3.3-3.7c-0.9-1.5-1.3-3.2-1.3-5.2c0-2.1,0.5-3.9,1.5-5.6c1-1.6,2.3-3,4-4.1
		c1.6-1.1,3.5-1.9,5.5-2.5c2-0.6,4.1-0.9,6.2-0.9c3.7,0,6.8,0.4,9.4,1.2c2.6,0.8,4.9,1.9,7,3.5l-5.4,7.4c-1.1-0.8-2.6-1.6-4.4-2.3
		c-1.8-0.7-4-1-6.5-1c-2.5,0-4.2,0.4-5.2,1.1c-1,0.7-1.5,1.6-1.5,2.7c0,1.3,0.8,2.3,2.4,3.1c1.6,0.7,4.2,1.5,7.6,2.4
		c2.1,0.5,4,1.1,5.7,1.8c1.7,0.7,3.1,1.6,4.4,2.7c1.2,1.1,2.1,2.3,2.8,3.8c0.7,1.5,1,3.2,1,5.2c0,2-0.5,3.8-1.4,5.5
		c-0.9,1.6-2.2,3-3.9,4.1c-1.6,1.1-3.5,2-5.7,2.6c-2.2,0.6-4.5,0.9-6.9,0.9c-3.9,0-7.4-0.5-10.6-1.6c-3.1-1.1-5.7-2.7-7.6-4.8
		L262.5,96.3z"/>
	<path class="st1" d="M118.8,60.6c2.7,1.1,5.7,1.7,9.1,1.7c3.3,0,6.1-0.4,8.4-1.1c2.3-0.7,4.3-1.5,5.8-2.4c1.5-0.9,2.7-1.7,3.5-2.5
		c0.8-0.8,1.3-1.3,1.5-1.5l-5.7-6.4c-0.4,0.4-0.9,0.8-1.6,1.4c-0.7,0.6-1.6,1.1-2.6,1.6c-1.1,0.5-2.4,0.9-3.9,1.3
		c-1.5,0.4-3.3,0.6-5.3,0.6c-1.4,0-2.7-0.2-4.1-0.7c-1.4-0.5-2.6-1.2-3.7-2c-0.5-0.4-0.9-0.8-1.3-1.3l-6.8,6.8
		C113.9,58,116.1,59.5,118.8,60.6z"/>
	<path class="st1" d="M143,25.3c0,0-0.1-0.1-0.1-0.1l-6.9,6.9c0.1,0.1,0.1,0.2,0.2,0.3c0.4,1.1,0.6,2.1,0.6,3.2h-4.3l-7.6,7.6h22.6
		v-1.5c0-3-0.4-5.9-1.1-8.7C145.7,30.1,144.6,27.6,143,25.3z"/>
	<path class="st1" d="M85.3,108.2h10.5V85.6c0-1.5,0.3-3,0.8-4.3c0.5-1.3,1.2-2.5,2.1-3.5c0.9-1,2-1.8,3.2-2.4
		c1.2-0.6,2.6-0.8,4-0.8c2.3,0,4.2,0.7,5.6,2.2c1.5,1.5,2.2,3.5,2.2,6.2v25.2h10.5V82.9c0-5.3-1.4-9.5-4.1-12.6
		c-2.7-3.1-6.7-4.7-11.9-4.7c-1.7,0-3.1,0.2-4.4,0.5c-1.1,0.3-2,0.7-2.9,1.1L85.3,82.7V108.2z"/>
</g>
</svg>
